<?xml version="1.0" encoding="UTF-8"?>
<svg version="1.1" xmlns="http://www.w3.org/2000/svg" width="500" height="100">
<path d="M0 0 C165 0 330 0 500 0 C500 165 500 330 500 500 C335 500 170 500 0 500 C0 335 0 170 0 0 Z " fill="#09090A" transform="translate(0,0)"/>
<path d="M0 0 C1.02867187 -0.02416992 1.02867187 -0.02416992 2.078125 -0.04882812 C6.79605034 -0.05332996 9.95808441 0.91892811 14 3.3125 C13.01 6.2825 12.02 9.2525 11 12.3125 C10.030625 12.1475 9.06125 11.9825 8.0625 11.8125 C0.43395677 10.5203239 0.43395677 10.5203239 -6.8359375 12.2890625 C-10.37921148 15.10639742 -12.63494092 17.97781986 -13.3359375 22.4609375 C-13.43177417 27.92362753 -12.67758174 31.00447568 -9 35.3125 C-5.96474514 37.33600324 -4.80573798 37.63374018 -1.3125 37.9375 C-0.50425781 38.01226562 0.30398437 38.08703125 1.13671875 38.1640625 C1.75160156 38.21304688 2.36648437 38.26203125 3 38.3125 C3 35.6725 3 33.0325 3 30.3125 C0.36 30.3125 -2.28 30.3125 -5 30.3125 C-4.67 27.0125 -4.34 23.7125 -4 20.3125 C2.27 20.3125 8.54 20.3125 15 20.3125 C15 28.8925 15 37.4725 15 46.3125 C4.79248611 49.37475417 -4.51108469 51.83122391 -14.5625 47.1875 C-20.18181201 43.90803266 -24.11626541 39.68178055 -26.48828125 33.484375 C-28.38817198 25.42071662 -27.75355067 17.67226249 -23.62109375 10.47265625 C-17.63221847 2.49229955 -9.72567521 -0.04570336 0 0 Z " fill="#D1D1D1" transform="translate(127,14.6875)"/>
<path d="M0 0 C5.094375 -0.020625 10.18875 -0.04125 15.4375 -0.0625 C17.04681396 -0.071604 18.65612793 -0.08070801 20.31420898 -0.09008789 C21.57048096 -0.09258545 22.82675293 -0.09508301 24.12109375 -0.09765625 C26.06133423 -0.10551147 26.06133423 -0.10551147 28.04077148 -0.11352539 C31 0 31 0 32 1 C32.14257189 4.33618231 32.04228157 7.65975606 32 11 C25.73 11 19.46 11 13 11 C13 13.97 13 16.94 13 20 C17.95 20 22.9 20 28 20 C28.33 23.3 28.66 26.6 29 30 C23.72 30 18.44 30 13 30 C13 35.94 13 41.88 13 48 C8.71 48 4.42 48 0 48 C0 32.16 0 16.32 0 0 Z " fill="#D0D0D0" transform="translate(64,15)"/>
<path d="M0 0 C4.91957273 2.77702984 7.47241417 5.91183979 9.58984375 11.1171875 C10.37130526 17.27119689 9.41645289 22.11486657 5.58984375 27.1171875 C3.31961837 28.87168239 1.22656794 29.89648185 -1.41015625 31.1171875 C-2.40015625 31.6121875 -2.40015625 31.6121875 -3.41015625 32.1171875 C-10.25799411 32.89361521 -15.72041055 32.12462858 -21.41015625 28.1171875 C-25.86221197 23.37790238 -25.75860805 18.2850919 -25.68359375 12.06640625 C-25.30879435 8.02392701 -24.23854741 6.01810151 -21.41015625 3.1171875 C-15.17726108 -1.81718784 -7.54639399 -2.76415728 0 0 Z " fill="#D1D1D1" transform="translate(226.41015625,29.8828125)"/>
<path d="M0 0 C1.11375 0.7425 1.11375 0.7425 2.25 1.5 C0.375 7.25 0.375 7.25 -0.75 9.5 C-5.04 9.5 -9.33 9.5 -13.75 9.5 C-12.50314694 13.24055919 -11.43656164 13.50892705 -8.0625 15.375 C2.97216718 21.75269033 2.97216718 21.75269033 5.25 27.5 C5.57515696 31.28672373 5.36809222 35.02808112 3.015625 38.125 C-2.55168129 42.94617246 -7.84223802 43.87540363 -14.9453125 43.76953125 C-18.96935775 43.38281938 -22.07892926 42.16237166 -25.75 40.5 C-25.2520163 36.76512223 -24.87508244 34.68762365 -22.75 31.5 C-21.925 31.665 -21.1 31.83 -20.25 32 C-16.33727683 32.55896045 -12.69816827 32.56807187 -8.75 32.5 C-8.42 31.51 -8.09 30.52 -7.75 29.5 C-8.71421875 28.90832031 -9.6784375 28.31664063 -10.671875 27.70703125 C-11.94820936 26.90932228 -13.2242348 26.11111889 -14.5 25.3125 C-15.13421875 24.92513672 -15.7684375 24.53777344 -16.421875 24.13867188 C-20.93089853 21.29704767 -24.31363924 18.37272152 -26.75 13.5 C-27.17872553 9.72721533 -26.87313092 7.75118708 -25.1875 4.3125 C-19.24978095 -2.53871429 -8.16624527 -4.073424 0 0 Z " fill="#D2D2D2" transform="translate(192.75,18.5)"/>
<path d="M0 0 C2.83681834 2.27783936 4.69479201 4.67503961 6.0234375 8.0234375 C6.25048828 10.58886719 6.25048828 10.58886719 6.21875 13.4453125 C6.21230469 14.47011719 6.20585937 15.49492188 6.19921875 16.55078125 C6.18246094 17.61425781 6.16570312 18.67773438 6.1484375 19.7734375 C6.13941406 20.85238281 6.13039063 21.93132813 6.12109375 23.04296875 C6.09755055 25.70335028 6.06466549 28.36328086 6.0234375 31.0234375 C-0.6015625 31.2734375 -0.6015625 31.2734375 -3.9765625 29.0234375 C-4.4509375 29.5390625 -4.9253125 30.0546875 -5.4140625 30.5859375 C-9.30068853 32.76623991 -12.75907789 32.17859413 -16.9765625 31.0234375 C-19.97108684 28.77754425 -20.79279372 27.57474383 -21.9765625 24.0234375 C-22.4140625 20.6484375 -22.4140625 20.6484375 -21.9765625 17.0234375 C-19.21093752 13.60279608 -17.72981548 12.22694008 -13.3515625 11.71875 C-10.87212844 11.71170615 -8.44551495 11.80386663 -5.9765625 12.0234375 C-6.3065625 11.3634375 -6.6365625 10.7034375 -6.9765625 10.0234375 C-10.6065625 10.0234375 -14.2365625 10.0234375 -17.9765625 10.0234375 C-18.9665625 7.3834375 -19.9565625 4.7434375 -20.9765625 2.0234375 C-15.49824646 -1.62877319 -6.09397684 -3.01085812 0 0 Z " fill="#D1D1D1" transform="translate(307.9765625,29.9765625)"/>
<path d="M0 0 C1.04929688 -0.01417969 2.09859375 -0.02835938 3.1796875 -0.04296875 C6.06047071 0.18245063 7.68740208 0.69785683 10.125 2.1875 C9.63921457 5.31040635 9.1263988 8.18330359 8.125 11.1875 C7.42632812 11.16429687 6.72765625 11.14109375 6.0078125 11.1171875 C5.09773438 11.09914063 4.18765625 11.08109375 3.25 11.0625 C2.34507812 11.03929687 1.44015625 11.01609375 0.5078125 10.9921875 C-2.06306994 10.94425164 -2.06306994 10.94425164 -3.875 13.1875 C-4.21990322 17.24011287 -4.17663882 18.73504176 -1.875 22.1875 C0.56193311 22.55166047 0.56193311 22.55166047 3.25 22.375 C4.16007812 22.34792969 5.07015625 22.32085937 6.0078125 22.29296875 C6.70648438 22.25816406 7.40515625 22.22335938 8.125 22.1875 C9.30698059 24.69051771 10.1422568 26.58351183 10.0625 29.375 C9.125 31.1875 9.125 31.1875 7.125 32.4375 C1.80613364 33.76721659 -2.92016001 33.86417538 -8.125 32.0625 C-11.95584349 29.45056126 -14.77661815 26.38426371 -16.875 22.1875 C-17.3988576 16.93174835 -17.54005372 12.54223905 -15.1875 7.75 C-10.38680307 2.43030881 -7.13616615 0.0436196 0 0 Z " fill="#D1D1D1" transform="translate(254.875,28.8125)"/>
<path d="M0 0 C3.96 0 7.92 0 12 0 C12 14.85 12 29.7 12 45 C8.04 45 4.08 45 0 45 C0 30.15 0 15.3 0 0 Z " fill="#D1D1D1" transform="translate(320,16)"/>
<path d="M0 0 C3.96 0 7.92 0 12 0 C12 10.23 12 20.46 12 31 C8.04 31 4.08 31 0 31 C0 20.77 0 10.54 0 0 Z " fill="#D2D2D2" transform="translate(269,30)"/>
<path d="M0 0 C2 2 2 2 2.375 5.4375 C2 9 2 9 0.3125 10.9375 C-2.41818887 12.19214083 -4.02932151 12.45702746 -7 12 C-8.8125 10.9375 -8.8125 10.9375 -10 9 C-10.4375 5.5 -10.4375 5.5 -10 2 C-7.00303875 -1.6885677 -4.34072074 -1.22672543 0 0 Z " fill="#CECECE" transform="translate(279,14)"/>
<path d="M0 0 C3 0.25 3 0.25 5 2.25 C5.265625 4.34375 5.265625 4.34375 5.25 6.75 C5.25515625 7.5440625 5.2603125 8.338125 5.265625 9.15625 C5 11.25 5 11.25 3 13.25 C0 13.5 0 13.5 -3 13.25 C-5 11.25 -5 11.25 -5.265625 9.15625 C-5.25789062 7.96515625 -5.25789062 7.96515625 -5.25 6.75 C-5.25515625 5.9559375 -5.2603125 5.161875 -5.265625 4.34375 C-4.80957894 0.74903399 -3.45860435 0.28821703 0 0 Z " fill="#0D0D0E" transform="translate(218,38.75)"/>
<path d="M0 0 C2.97 0 5.94 0 9 0 C9.33 0.99 9.66 1.98 10 3 C6.37 3.33 2.74 3.66 -1 4 C-0.67 2.68 -0.34 1.36 0 0 Z " fill="#161617" transform="translate(292,39)"/>
<path d="M0 0 C1.2065625 0.0309375 1.2065625 0.0309375 2.4375 0.0625 C2.4375 1.3825 2.4375 2.7025 2.4375 4.0625 C0.7875 4.3925 -0.8625 4.7225 -2.5625 5.0625 C-3.125 3.125 -3.125 3.125 -3.5625 1.0625 C-2.5625 0.0625 -2.5625 0.0625 0 0 Z " fill="#252526" transform="translate(299.5625,47.9375)"/>
</svg>
